# AST/ASF file generated using VICON BodyLanguage
# -----------------------------------------------
:version 1.10
:name VICON
:units
  mass 1.0
  length 0.45
  angle deg
:documentation
   .ast/.asf automatically generated from VICON data using
   VICON BodyBuilder and BodyLanguage model FoxedUp or BRILLIANT.MOD
:root
   order TX TY TZ RX RY RZ
   axis XYZ
   position 0 0 0  
   orientation 0 0 0 
:bonedata
  begin
     id 1 
     name lhipjoint
     direction 0.822369 -0.411937 0.392449 
     length 3.8167 
     axis 0 0 0  XYZ
  end
  begin
     id 2 
     name lfemur
     direction 0.34202 -0.939693 0  
     length 6.16791  
     axis 0 0 20  XYZ
    dof rx ry rz
    limits (-160.0 20.0)
           (-70.0 70.0)
           (-60.0 70.0)
  end
  begin
     id 3 
     name ltibia
     direction 0.34202 -0.939693 0   
     length 7.07101   
     axis 0 0 20   XYZ
    dof rx
    limits (-10.0 170.0)
  end
  begin
     id 4 
     name lfoot
     direction 0.028254 -0.0776273 0.996582   
     length 1.66799   
     axis -90 7.62852e-016 20   XYZ
    dof rx rz
    limits (-45.0 90.0)
           (-70.0 20.0)
  end
  begin
     id 5 
     name ltoes
     direction 1.53483e-011 -4.21688e-011 1   
     length 0.851674   
     axis -90 7.62852e-016 20   XYZ
    dof rx
    limits (-90.0 20.0)
  end
  begin
     id 6 
     name rhipjoint
     direction -0.822466 -0.411836 0.392353   
     length 3.81764  
     axis 0 0 0  XYZ 
  end
  begin
     id 7 
     name rfemur
     direction -0.34202 -0.939693 0   
     length 6.28636   
     axis 0 0 -20   XYZ
    dof rx ry rz
    limits (-160.0 20.0)
           (-70.0 70.0)
           (-70.0 60.0)
  end
  begin
     id 8 
     name rtibia
     direction -0.34202 -0.939693 0   
     length 6.85621   
     axis 0 0 -20   XYZ
    dof rx
    limits (-10.0 170.0)
 end
 begin
     id 9 
     name rfoot
     direction -0.0553036 -0.151945 0.98684   
     length 1.57293  
     axis -90 -7.62852e-016 -20   XYZ
    dof rx rz
    limits (-45.0 90.0)
           (-20.0 70.0)
  end
  begin
     id 10 
     name rtoes
     direction -1.53592e-011 -4.21964e-011 1   
     length 0.802812   
     axis -90 -7.62852e-016 -20   XYZ
    dof rx
    limits (-90.0 20.0)
  end
  begin
     id 11 
     name lowerback
     direction 0.00654913 0.996475 -0.0836396   
     length 1.97212   
     axis 0 0 0   XYZ
    dof rx ry rz
    limits (-20.0 45.0)
           (-30.0 30.0)
           (-30.0 30.0)
  end
  begin
     id 12 
     name upperback
     direction 0.0111875 0.994527 0.103877   
     length 1.89704   
     axis 0 0 0   XYZ
    dof rx ry rz
    limits (-20.0 45.0)
           (-30.0 30.0)
           (-30.0 30.0)
  end
  begin
     id 13 
     name thorax
     direction 0.00473652 0.989004 0.147814   
     length 1.94516   
     axis 0 0 0   XYZ
    dof rx ry rz
    limits (-20.0 45.0)
           (-30.0 30.0)
           (-30.0 30.0)
  end
  begin
     id 14 
     name lowerneck
     direction -0.00925808 0.999011 0.0434791   
     length 1.81771   
     axis 0 0 0   XYZ
    dof rx ry rz
    limits (-20.0 45.0)
           (-30.0 30.0)
           (-30.0 30.0)
  end
  begin
     id 15 
     name upperneck
     direction 0.00451595 0.964412 -0.264365   
     length 1.80434   
     axis 0 0 0   XYZ
    dof rx ry rz
    limits (-20.0 45.0)
           (-30.0 30.0)
           (-30.0 30.0)
  end
  begin
     id 16
     name head
     direction -0.00110849 0.995756 -0.0920241  
     length 1.84006  
     axis 0 0 0   XYZ
    dof rx ry rz
    limits (-20.0 45.0)
           (-30.0 30.0)
           (-30.0 30.0)
  end
  begin
     id 17 
     name lclavicle
     direction 0.921253 0.385213 0.0538957  
     length 3.67415  
     axis 0 0 0   XYZ
    dof ry rz
    limits (-20.0 10.0)
           (0.0 20.0)
  end
  begin
     id 18 
     name lhumerus
     direction 1 -4.48961e-011 6.73441e-028   
     length 4.32712   
     axis 180 -30 -90   XYZ
    dof rx ry rz
    limits (-60.0 90.0)
           (-90.0 90.0)
           (-90.0 90.0)
  end
  begin
     id 19
     name lradius
     direction 1 -4.48985e-011 -9.53507e-028   
     length 3.28587   
     axis 180 -30 -90   XYZ
    dof rx
    limits (-10.0 170.0)
  end
  begin
     id 20
     name lwrist
     direction 1 -4.48951e-011 -4.67472e-027   
     length 1.64293   
     axis 1.65735e-015 90 90   XYZ
    dof ry
    limits (-180.0 0.0)
 end
  begin
     id 21 
     name lhand
     direction 1 -4.48946e-011 -9.34945e-027   
     length 0.433158   
     axis 5.96574e-015 90 90   XYZ
    dof rx rz
    limits (-90.0 90.0)
           (-45.0 45.0)
  end
  begin
     id 22 
     name lfingers
     direction 1 -4.48882e-011 -1.86989e-026   
     length 0.349224   
     axis 1.19315e-014 90 90   XYZ
    dof rx
    limits (0.0 90.0)
  end
  begin
     id 23
     name lthumb
     direction 0.707107 -6.3493e-011 0.707107   
     length 0.501417   
     axis -90 45 2.85299e-015   XYZ
    dof rx rz
    limits (-45.0 45.0)
           (-45.0 45.0)
  end
  begin
     id 24 
     name rclavicle
     direction -0.884378 0.46502 -0.0403866   
     length 3.50218  
     axis 0 0 0   XYZ 
    dof ry rz
    limits (-10.0 20.0)
           (-20.0 0.0)
  end
  begin
     id 25 
     name rhumerus
     direction -1 -4.48964e-011 1.58188e-027  
     length 4.29104   
     axis 180 30 90   XYZ
    dof rx ry rz
    limits (-90.0 60.0)
           (-90.0 90.0)
           (-90.0 90.0)
  end
  begin
     id 26 
     name rradius
     direction -1 -4.48978e-011 -1.9722e-027   
     length 3.2272   
     axis 180 30 90   XYZ
    dof rx
    limits (-10.0 170.0)
  end
  begin
     id 27 
     name rwrist
     direction -1 -4.48969e-011 -4.67472e-027   
     length 1.6136   
     axis 1.65735e-015 -90 -90   XYZ
    dof ry
    limits (-180.0 0.0)
  end
  begin
     id 28
     name rhand
     direction -1 -4.48846e-011 -9.34945e-027   
     length 0.543623   
     axis 5.96574e-015 -90 -90   XYZ
    dof rx rz
    limits (-90.0 90.0)
           (-45.0 45.0)
  end
  begin
     id 29
     name rfingers
     direction -1 -4.49074e-011 -1.86989e-026   
     length 0.438283   
     axis 1.19315e-014 -90 -90   XYZ
    dof rx
    limits (0.0 90.0)
  end
  begin
     id 30
     name rthumb
     direction -0.707107 -6.34834e-011 0.707107   
     length 0.629289   
     axis -90 -45 -2.85299e-015   XYZ
    dof rx rz
    limits (-45.0 45.0)
           (-45.0 45.0)
  end
:hierarchy
  begin
    root lhipjoint rhipjoint lowerback
    lhipjoint lfemur
    lfemur ltibia
    ltibia lfoot
    lfoot ltoes
    rhipjoint rfemur
    rfemur rtibia
    rtibia rfoot
    rfoot rtoes
    lowerback upperback
    upperback thorax
    thorax lowerneck lclavicle rclavicle
    lowerneck upperneck
    upperneck head
    lclavicle lhumerus
    lhumerus lradius
    lradius lwrist
    lwrist lhand lthumb
    lhand lfingers
    rclavicle rhumerus
    rhumerus rradius
    rradius rwrist
    rwrist rhand rthumb
    rhand rfingers
  end

#!OML:ASF H:\GeneralSubjects\Female5\Project 1\Capture day 1\Session 1\Female5.ASF
:FULLY-SPECIFIED
:DEGREES
34
root -30.9445 15.2189 -2.73043 -159.283 77.7827 -176.444
lowerback 8.21151 -1.17454 -2.1563
upperback -9.5321 -1.14447 3.74626
thorax -15.1147 0.119426 5.63598
lowerneck -26.9066 -4.61039 -5.84364
upperneck 37.1243 -4.52006 2.7891
head 18.9093 -1.89104 1.38456
rclavicle -3.04389e-014 5.56597e-014
rhumerus -55.8906 11.9952 -73.8248
rradius 31.8955
rwrist -17.8441
rhand -19.3559 -26.2709
rfingers 7.12502
rthumb 6.9616 -56.1365
lclavicle -3.04389e-014 5.56597e-014
lhumerus -41.3134 3.96199 85.1876
lradius 33.5942
lwrist -11.8812
lhand -23.9592 33.1496
lfingers 7.12502
lthumb 2.51672 63.1145
rfemur -42.9655 5.32618 26.3537
rtibia 24.5857
rfoot -19.0694 -21.0474
rtoes -18.6511
lfemur 16.5546 -31.7417 -39.7815
ltibia -0.633947
lfoot -35.5808 40.8938
ltoes -59.0086
35
root -30.6682 15.2114 -2.72522 -156.368 77.8801 -173.256
lowerback 7.88791 -1.11104 -1.23147
upperback -9.58389 -0.875662 3.8942
thorax -15.0081 0.158564 5.2095
lowerneck -26.8958 -4.60876 -5.87562
upperneck 37.139 -4.38918 2.53098
head 18.8982 -1.88518 1.29731
rclavicle -8.2682e-015 2.78299e-014
rhumerus -55.739 12.0924 -74.1151
rradius 31.9475
rwrist -17.8532
rhand -19.2984 -26.2157
rfingers 7.12502
rthumb 7.01706 -56.0794
lclavicle -8.2682e-015 2.78299e-014
lhumerus -41.8264 3.9614 85.2197
lradius 33.8895
lwrist -11.2278
lhand -23.8651 33.3634
lfingers 7.12502
lthumb 2.60761 63.3272
rfemur -42.0809 4.92806 27.8059
rtibia 25.4003
rfoot -15.3131 -21.0499
rtoes -22.6826
lfemur 15.3648 -27.434 -37.2675
ltibia 1.11526
lfoot -31.065 41.3752
ltoes -57.3154
36
root -30.3876 15.2103 -2.72243 -154.017 78.186 -170.61
lowerback 7.59552 -1.02229 -0.530531
upperback -9.69384 -0.617664 3.97963
thorax -14.9858 0.217114 4.84828
lowerneck -26.6065 -4.49347 -5.90098
upperneck 37.2871 -4.143 2.41075
head 18.8916 -1.80637 1.31095
rclavicle -3.2346e-014 4.77083e-015
rhumerus -55.5864 12.4639 -74.6847
rradius 31.9992
rwrist -17.8726
rhand -19.3407 -26.0094
rfingers 7.12502
rthumb 6.97625 -55.8745
lclavicle -3.2346e-014 4.77083e-015
lhumerus -42.5671 4.15967 85.0314
lradius 34.0516
lwrist -10.6134
lhand -23.6546 33.0188
lfingers 7.12502
lthumb 2.81095 62.98
rfemur -41.0162 4.52326 29.0566
rtibia 26.0246
rfoot -17.8845 -19.836
rtoes -15.5197
lfemur 14.1662 -22.946 -35.0216
ltibia 3.57208
lfoot -25.9796 43.0168
ltoes -55.6164
37
root -30.1073 15.2198 -2.72121 -152.129 78.6758 -168.444
lowerback 7.38158 -0.906356 0.0225407
upperback -9.81185 -0.358011 3.99894
thorax -15.0188 0.287698 4.50133
lowerneck -26.3683 -4.37224 -5.89889
upperneck 37.4687 -3.90645 2.30993
head 18.9186 -1.7236 1.32655
rclavicle 2.9358e-014 -3.89618e-014
rhumerus -55.2464 12.9262 -75.3167
rradius 32.0291
rwrist -17.9164
rhand -19.2356 -25.8099
rfingers 7.12502
rthumb 7.07772 -55.6715
lclavicle 2.9358e-014 -3.89618e-014
lhumerus -43.3387 4.59979 84.6917
lradius 34.1634
lwrist -9.93572
lhand -23.5985 32.2228
lfingers 7.12502
lthumb 2.86515 62.1833
rfemur -39.878 4.20088 30.0593
rtibia 26.5634
rfoot -18.6822 -17.6517
rtoes -11.9114
lfemur 12.8592 -18.1662 -32.9294
ltibia 6.49839
lfoot -19.7169 43.8467
ltoes -54.9079
38
root -29.8089 15.2487 -2.70975 -151.393 79.0707 -167.219
lowerback 7.30469 -0.853419 0.261359
upperback -9.85259 -0.246787 3.98918
thorax -15.0291 0.31512 4.33187
lowerneck -26.217 -4.25719 -5.791
upperneck 37.6645 -3.70829 2.16004
head 18.9739 -1.6478 1.28973
rclavicle 6.28657e-015 -2.78299e-014
rhumerus -54.793 13.3558 -75.9313
rradius 32.2086
rwrist -17.8737
rhand -18.996 -25.9721
rfingers 7.12502
rthumb 7.30902 -55.8259
lclavicle 6.28657e-015 -2.78299e-014
lhumerus -44.7566 4.00829 84.7994
lradius 35.3473
lwrist -7.74163
lhand -23.7372 32.4154
lfingers 7.12502
lthumb 2.73119 62.3777
rfemur -38.0016 3.78057 30.821
rtibia 26.4688
rfoot -17.6751 -16.2282
rtoes -13.4384
lfemur 11.5063 -13.2789 -30.8344
ltibia 10.3504
lfoot -12.5716 43.4753
ltoes -55.4664
39
root -29.5061 15.2898 -2.69222 -150.317 79.5872 -165.583
lowerback 7.25221 -0.760515 0.330511
upperback -9.86678 -0.107767 3.99041
thorax -15.0238 0.37368 4.26533
lowerneck -25.9571 -4.11295 -5.67693
upperneck 37.8989 -3.53612 2.16953
head 19.0306 -1.554 1.32528
rclavicle -1.81143e-014 6.99722e-014
rhumerus -54.2749 13.9608 -76.7286
rradius 32.4217
rwrist -17.6859
rhand -19.065 -26.3251
rfingers 7.12502
rthumb 7.24239 -56.1812
lclavicle -1.81143e-014 6.99722e-014
lhumerus -45.8462 4.43393 84.3612
lradius 35.653
lwrist -6.69686
lhand -24.1943 32.5252
lfingers 7.12502
lthumb 2.28966 62.4926
rfemur -35.7893 3.40788 31.6044
rtibia 25.9075
rfoot -18.1184 -15.3971
rtoes -13.8392
lfemur 9.87942 -8.72788 -28.7421
ltibia 15.1764
lfoot -3.05968 43.5947
ltoes -55.5397
40
root -29.2048 15.3453 -2.66693 -148.754 80.0241 -163.385
lowerback 7.21887 -0.689343 0.47029
upperback -9.82621 0.00479382 3.98455
thorax -14.9613 0.407875 4.15456
lowerneck -25.6081 -3.97997 -5.55392
upperneck 38.1616 -3.44381 2.31358
head 19.0895 -1.46715 1.40767
rclavicle -2.23136e-014 -3.18055e-015
rhumerus -53.6916 14.8494 -77.8357
rradius 32.7297
rwrist -17.8013
rhand -19.3878 -26.8748
rfingers 7.12502
rthumb 6.93078 -56.7414
lclavicle -2.23136e-014 -3.18055e-015
lhumerus -46.7214 5.22159 83.6373
lradius 35.5264
lwrist -6.37541
lhand -24.6341 32.3385
lfingers 7.12502
lthumb 1.86491 62.3101
rfemur -33.1431 3.38569 32.353
rtibia 24.7412
rfoot -18.872 -14.6796
rtoes -13.6955
lfemur 8.03153 -4.68162 -26.6139
ltibia 20.9072
lfoot 9.37347 43.9917
ltoes -54.1493
41
root -28.9131 15.4083 -2.63549 -145.988 80.3604 -160.021
lowerback 7.2105 -0.618734 0.752102
upperback -9.77865 0.145602 4.02681
thorax -14.9089 0.444492 4.01268
lowerneck -25.2172 -3.82865 -5.3275
upperneck 38.3764 -3.32011 2.33235
head 19.0993 -1.37215 1.41769
rclavicle -1.07344e-014 2.8625e-014
rhumerus -53.1871 15.8089 -79.0101
rradius 33.2159
rwrist -17.7872
rhand -20.1174 -26.8633
rfingers 7.12502
rthumb 6.22644 -56.7518
lclavicle -1.07344e-014 2.8625e-014
lhumerus -47.4899 5.90194 82.9446
lradius 35.3173
lwrist -6.26526
lhand -24.843 32.3666
lfingers 7.12502
lthumb 1.66316 62.3398
rfemur -30.3467 3.69918 33.222
rtibia 23.1607
rfoot -19.2931 -14.1348
rtoes -14.1676
lfemur 5.20248 -1.77264 -24.5783
ltibia 27.7999
lfoot 20.493 41.9237
ltoes -54.4325
42
root -28.6337 15.4711 -2.60199 -141.933 80.575 -155.447
lowerback 7.21245 -0.531347 1.12255
upperback -9.72668 0.337964 4.16101
thorax -14.8626 0.504791 3.91417
lowerneck -24.87 -3.66763 -5.09571
upperneck 38.5254 -3.15168 2.27792
head 19.0765 -1.27185 1.39881
rclavicle -3.70733e-014 6.75868e-014
rhumerus -52.6567 16.6755 -79.9235
rradius 33.9692
rwrist -17.5954
rhand -20.6202 -26.4957
rfingers 7.12502
rthumb 5.74101 -56.3979
lclavicle -3.70733e-014 6.75868e-014
lhumerus -48.1518 6.36726 82.407
lradius 35.0479
lwrist -6.50389
lhand -24.6991 32.4358
lfingers 7.12502
lthumb 1.80222 62.408
rfemur -27.5671 4.03057 34.2943
rtibia 21.2875
rfoot -19.5554 -13.8705
rtoes -15.1386
lfemur 2.15143 0.848955 -22.4813
ltibia 34.9346
lfoot 30.4716 39.487
ltoes -51.9123
43
root -28.3571 15.5313 -2.57611 -137.277 80.618 -150.252
lowerback 7.19277 -0.449047 1.71826
upperback -9.64438 0.556375 4.31321
thorax -14.7655 0.553861 3.70175
lowerneck -24.5186 -3.5499 -5.00669
upperneck 38.6823 -3.01561 2.30929
head 19.0669 -1.19228 1.43891
rclavicle -1.42131e-014 -6.36111e-015
rhumerus -52.006 17.4912 -80.5681
rradius 35.132
rwrist -17.9134
rhand -20.0938 -26.8616
rfingers 7.12502
rthumb 6.2493 -56.7494
lclavicle -1.42131e-014 -6.36111e-015
lhumerus -48.7818 6.53503 81.976
lradius 34.8282
lwrist -6.9766
lhand -24.1711 32.002
lfingers 7.12502
lthumb 2.31208 61.9692
rfemur -24.702 4.24888 35.4722
rtibia 19.2632
rfoot -19.9521 -13.5946
rtoes -15.7023
lfemur -0.876771 3.02674 -20.4702
ltibia 39.735
lfoot 30.1139 30.5204
ltoes -63.0719
44
root -28.0793 15.5847 -2.56277 -131.74 80.565 -144.196
lowerback 7.12452 -0.347837 2.54686
upperback -9.58102 0.836484 4.47074
thorax -14.6602 0.610019 3.35209
lowerneck -24.0967 -3.44429 -4.90506
upperneck 38.9212 -2.87839 2.30052
head 19.0866 -1.11303 1.46057
rclavicle 1.94312e-014 -1.19271e-014
rhumerus -51.3844 18.5121 -81.2354
rradius 36.3843
rwrist -18.0378
rhand -19.5136 -27.0932
rfingers 7.12502
rthumb 6.80941 -56.9637
lclavicle 1.94312e-014 -1.19271e-014
lhumerus -49.3442 6.43917 81.7105
lradius 34.6793
lwrist -7.3247
lhand -23.6107 32.0807
lfingers 7.12502
lthumb 2.85334 62.0413
rfemur -21.8989 4.44804 36.7207
rtibia 17.293
rfoot -19.8558 -13.1525
rtoes -16.2434
lfemur -3.75253 5.02114 -18.6704
ltibia 44.7115
lfoot 26.6251 26.918
ltoes -65.9714
